<?xml version="1.0" encoding="UTF-8" standalone="no"?>
<!DOCTYPE svg PUBLIC "-//W3C//DTD SVG 1.1//EN" "http://www.w3.org/Graphics/SVG/1.1/DTD/svg11.dtd">
<svg width="100%" height="100%" viewBox="0 0 512 512" version="1.1" xmlns="http://www.w3.org/2000/svg" xmlns:xlink="http://www.w3.org/1999/xlink" xml:space="preserve" xmlns:serif="http://www.serif.com/" style="fill-rule:evenodd;clip-rule:evenodd;stroke-linecap:round;stroke-linejoin:round;stroke-miterlimit:1.5;">
    <rect id="Artboard1" x="0" y="0" width="512" height="512" style="fill:none;"/>
    <g id="Artboard11" serif:id="Artboard1">
        <g transform="matrix(0.947996,0,0,0.947996,14.8318,4.20093)">
            <path d="M494.378,53.456L494.378,477.768C494.378,493.125 481.911,505.592 466.554,505.592L42.242,505.592C26.885,505.592 14.418,493.125 14.418,477.768L14.418,53.456C14.418,38.099 26.885,25.632 42.242,25.632L466.554,25.632C481.911,25.632 494.378,38.099 494.378,53.456Z" style="fill:none;stroke:rgb(192,168,255);stroke-width:13.19px;"/>
        </g>
        <g transform="matrix(0.834994,0,0,0.834994,43.3117,41.439)">
            <path d="M104.38,467.741C104.38,477.27 100.595,486.409 93.857,493.146C87.119,499.884 77.981,503.67 68.452,503.67C60.442,503.67 51.948,503.67 43.938,503.67C34.41,503.67 25.271,499.884 18.533,493.146C11.795,486.409 8.01,477.27 8.01,467.741C8.01,376.622 8.01,137.301 8.01,46.181C8.01,36.652 11.795,27.514 18.533,20.776C25.271,14.038 34.41,10.253 43.938,10.253C51.948,10.253 60.442,10.253 68.452,10.253C77.981,10.253 87.119,14.038 93.857,20.776C100.595,27.514 104.38,36.652 104.38,46.181C104.38,137.301 104.38,376.622 104.38,467.741ZM217.405,426.573C207.876,426.573 198.738,422.788 192,416.05C185.262,409.312 181.477,400.174 181.477,390.645C181.477,311.909 181.477,124.917 181.477,46.181C181.477,36.652 185.262,27.514 192,20.776C198.738,14.038 207.876,10.253 217.405,10.253C278.971,10.253 403.933,10.253 465.498,10.253C475.027,10.253 484.166,14.038 490.904,20.776C497.641,27.514 501.427,36.652 501.427,46.181C501.427,124.917 501.427,311.909 501.427,390.645C501.427,400.174 497.641,409.312 490.904,416.05C484.166,422.788 475.027,426.573 465.498,426.573C403.933,426.573 278.971,426.573 217.405,426.573ZM441.179,324.837C418.546,324.837 400.17,343.212 400.17,365.845C400.17,388.479 418.546,406.854 441.179,406.854C463.812,406.854 482.188,388.479 482.188,365.845C482.188,343.212 463.812,324.837 441.179,324.837Z" style="fill:rgb(192,168,255);"/>
        </g>
    </g>
</svg>
