<?xml version="1.0" encoding="UTF-8" standalone="no"?>
<!DOCTYPE svg PUBLIC "-//W3C//DTD SVG 1.1//EN" "http://www.w3.org/Graphics/SVG/1.1/DTD/svg11.dtd">
<svg width="100%" height="100%" viewBox="0 0 512 512" version="1.1" xmlns="http://www.w3.org/2000/svg" xmlns:xlink="http://www.w3.org/1999/xlink" xml:space="preserve" xmlns:serif="http://www.serif.com/" style="fill-rule:evenodd;clip-rule:evenodd;stroke-linecap:round;stroke-linejoin:round;stroke-miterlimit:1.5;">
    <rect id="Artboard1" x="0" y="0" width="512" height="512" style="fill:none;"/>
    <g id="Artboard11" serif:id="Artboard1">
        <g transform="matrix(0.947996,0,0,0.947996,14.8318,4.20093)">
            <path d="M494.378,53.456L494.378,477.768C494.378,493.125 481.911,505.592 466.554,505.592L42.242,505.592C26.885,505.592 14.418,493.125 14.418,477.768L14.418,53.456C14.418,38.099 26.885,25.632 42.242,25.632L466.554,25.632C481.911,25.632 494.378,38.099 494.378,53.456ZM121.98,451.267L121.98,79.957C121.98,71.564 118.646,63.515 112.711,57.58C106.777,51.645 98.728,48.312 90.335,48.312L68.743,48.312C60.351,48.312 52.301,51.645 46.366,57.58C40.431,63.515 37.097,71.564 37.097,79.957L37.097,451.267C37.097,459.66 40.431,467.709 46.366,473.643C52.301,479.578 60.351,482.913 68.743,482.913L90.335,482.913C98.728,482.913 106.777,479.578 112.711,473.643C118.646,467.709 121.98,459.66 121.98,451.267ZM221.532,415.006L440.052,415.006C448.446,415.006 456.495,411.672 462.43,405.737C468.364,399.802 471.699,391.754 471.699,383.361L471.699,79.957C471.699,71.564 468.364,63.515 462.43,57.58C456.495,51.645 448.446,48.312 440.052,48.312L221.532,48.312C213.139,48.312 205.09,51.645 199.156,57.58C193.221,63.515 189.887,71.564 189.887,79.957L189.887,383.361C189.887,391.754 193.221,399.802 199.156,405.737C205.09,411.672 213.139,415.006 221.532,415.006ZM418.632,325.397C438.567,325.397 454.753,341.582 454.753,361.517C454.753,381.453 438.567,397.637 418.632,397.637C398.697,397.637 382.512,381.453 382.512,361.517C382.512,341.582 398.697,325.397 418.632,325.397Z" style="fill:white;stroke:black;stroke-width:10.55px;"/>
        </g>
    </g>
</svg>
